<svg width="36" height="36" viewBox="0 0 36 36" fill="none" xmlns="http://www.w3.org/2000/svg">
<path fill-rule="evenodd" clip-rule="evenodd" d="M12.9946 7.5H23.0071C26.0635 7.52311 28.5226 10.0192 28.5001 13.0755V19.845C28.5109 21.313 27.9381 22.7251 26.9077 23.7707C25.8772 24.8164 24.4736 25.4098 23.0057 25.4205H12.9946L7.50015 28.5V13.0755C7.48937 11.6075 8.0622 10.1954 9.09263 9.14976C10.1231 8.10414 11.5267 7.5107 12.9946 7.5Z" fill="black" stroke="black" stroke-width="1.5" stroke-linecap="round" stroke-linejoin="round"/>
<path fill-rule="evenodd" clip-rule="evenodd" d="M10.5001 16.5C10.5001 15.6716 11.1717 15 12.0001 15C12.8285 15 13.5001 15.6716 13.5001 16.5C13.5001 17.3284 12.8285 18 12.0001 18C11.6023 18 11.2208 17.842 10.9395 17.5607C10.6582 17.2794 10.5001 16.8978 10.5001 16.5Z" fill="black" stroke="black" stroke-linecap="round" stroke-linejoin="round"/>
<path fill-rule="evenodd" clip-rule="evenodd" d="M16.5001 16.5C16.5001 15.6716 17.1717 15 18.0001 15C18.8285 15 19.5001 15.6716 19.5001 16.5C19.5001 17.3284 18.8285 18 18.0001 18C17.1717 18 16.5001 17.3284 16.5001 16.5Z" fill="black" stroke="black" stroke-linecap="round" stroke-linejoin="round"/>
<path fill-rule="evenodd" clip-rule="evenodd" d="M22.5001 16.5C22.5001 15.6716 23.1717 15 24.0001 15C24.8285 15 25.5001 15.6716 25.5001 16.5C25.5001 17.3284 24.8285 18 24.0001 18C23.1717 18 22.5001 17.3284 22.5001 16.5Z" fill="black" stroke="black" stroke-linecap="round" stroke-linejoin="round"/>
</svg>
