<svg width="36" height="36" viewBox="0 0 36 36" fill="none" xmlns="http://www.w3.org/2000/svg">
<path fill-rule="evenodd" clip-rule="evenodd" d="M22.0381 7.5H13.9621C12.2387 7.50952 10.5897 8.20328 9.37784 9.42865C8.16597 10.654 7.49053 12.3106 7.5001 14.034V21.966C7.49053 23.6894 8.16597 25.346 9.37784 26.5714C10.5897 27.7967 12.2387 28.4905 13.9621 28.5H22.0381C23.7615 28.4905 25.4105 27.7967 26.6224 26.5714C27.8342 25.346 28.5097 23.6894 28.5001 21.966V14.034C28.5097 12.3106 27.8342 10.654 26.6224 9.42865C25.4105 8.20328 23.7615 7.50952 22.0381 7.5Z" stroke="black" stroke-width="1.5" stroke-linecap="round" stroke-linejoin="round"/>
<path d="M12.0002 13.875C11.586 13.875 11.2502 14.2108 11.2502 14.625C11.2502 15.0392 11.586 15.375 12.0002 15.375V13.875ZM18.0002 15.375C18.4144 15.375 18.7502 15.0392 18.7502 14.625C18.7502 14.2108 18.4144 13.875 18.0002 13.875V15.375ZM17.2502 14.625C17.2502 15.0392 17.586 15.375 18.0002 15.375C18.4144 15.375 18.7502 15.0392 18.7502 14.625H17.2502ZM18.7502 12C18.7502 11.5858 18.4144 11.25 18.0002 11.25C17.586 11.25 17.2502 11.5858 17.2502 12H18.7502ZM18.0002 13.875C17.586 13.875 17.2502 14.2108 17.2502 14.625C17.2502 15.0392 17.586 15.375 18.0002 15.375V13.875ZM23.2502 15.375C23.6644 15.375 24.0002 15.0392 24.0002 14.625C24.0002 14.2108 23.6644 13.875 23.2502 13.875V15.375ZM23.2502 13.875C22.836 13.875 22.5002 14.2108 22.5002 14.625C22.5002 15.0392 22.836 15.375 23.2502 15.375V13.875ZM24.0002 15.375C24.4144 15.375 24.7502 15.0392 24.7502 14.625C24.7502 14.2108 24.4144 13.875 24.0002 13.875V15.375ZM23.8639 15.0561C24.102 14.7172 24.0203 14.2494 23.6813 14.0113C23.3424 13.7732 22.8746 13.8549 22.6365 14.1939L23.8639 15.0561ZM17.1533 20.2033C16.8375 20.4714 16.7989 20.9447 17.067 21.2604C17.3351 21.5762 17.8084 21.6148 18.1241 21.3467L17.1533 20.2033ZM14.1748 22.6503C13.8436 22.899 13.7767 23.3692 14.0255 23.7004C14.2742 24.0316 14.7444 24.0985 15.0756 23.8497L14.1748 22.6503ZM18.1364 21.33C18.4463 21.0551 18.4746 20.5811 18.1997 20.2713C17.9248 19.9614 17.4508 19.9331 17.1409 20.208L18.1364 21.33ZM17.0487 21.2321C17.3044 21.5579 17.7759 21.6147 18.1017 21.359C18.4276 21.1032 18.4844 20.6318 18.2287 20.3059L17.0487 21.2321ZM16.4361 17.3217C16.2686 16.9428 15.8257 16.7716 15.4468 16.9391C15.068 17.1066 14.8967 17.5495 15.0643 17.9283L16.4361 17.3217ZM18.2405 20.3274C17.9933 19.995 17.5234 19.926 17.1911 20.1732C16.8587 20.4204 16.7897 20.8902 17.0369 21.2226L18.2405 20.3274ZM21.0203 24.6608C21.3853 24.8567 21.84 24.7198 22.0359 24.3548C22.2319 23.9899 22.0949 23.5352 21.73 23.3392L21.0203 24.6608ZM12.0002 15.375H18.0002V13.875H12.0002V15.375ZM18.7502 14.625V12H17.2502V14.625H18.7502ZM18.0002 15.375H23.2502V13.875H18.0002V15.375ZM23.2502 15.375H24.0002V13.875H23.2502V15.375ZM22.6365 14.1939C21.0713 16.4217 19.2287 18.4411 17.1533 20.2033L18.1241 21.3467C20.2967 19.5021 22.2255 17.3882 23.8639 15.0561L22.6365 14.1939ZM15.0756 23.8497C15.8334 23.2806 16.9382 22.3931 18.1364 21.33L17.1409 20.208C15.9722 21.2449 14.899 22.1064 14.1748 22.6503L15.0756 23.8497ZM18.2287 20.3059C17.5094 19.3896 16.9073 18.3871 16.4361 17.3217L15.0643 17.9283C15.5858 19.1078 16.2525 20.2176 17.0487 21.2321L18.2287 20.3059ZM17.0369 21.2226C18.0964 22.647 19.4563 23.8209 21.0203 24.6608L21.73 23.3392C20.3599 22.6035 19.1686 21.5752 18.2405 20.3274L17.0369 21.2226Z" fill="black"/>
</svg>
