<svg width="36" height="36" viewBox="0 0 36 36" fill="none" xmlns="http://www.w3.org/2000/svg">
<path fill-rule="evenodd" clip-rule="evenodd" d="M22.5 12C22.5 14.4853 20.4853 16.5 18 16.5C15.5147 16.5 13.5 14.4853 13.5 12C13.5 9.51472 15.5147 7.5 18 7.5C19.1935 7.5 20.3381 7.97411 21.182 8.81802C22.0259 9.66193 22.5 10.8065 22.5 12Z" stroke="black" stroke-width="1.5" stroke-linecap="round" stroke-linejoin="round"/>
<path fill-rule="evenodd" clip-rule="evenodd" d="M23.25 21H12.75C10.6789 21 9 22.6789 9 24.75C9 26.8211 10.6789 28.5 12.75 28.5H23.25C25.3211 28.5 27 26.8211 27 24.75C27 22.6789 25.3211 21 23.25 21V21Z" stroke="black" stroke-width="1.5" stroke-linecap="round" stroke-linejoin="round"/>
</svg>
