<svg width="36" height="36" viewBox="0 0 36 36" fill="none" xmlns="http://www.w3.org/2000/svg">
<path d="M18 18C22.1421 18 25.5 14.6421 25.5 10.5C25.5 6.35786 22.1421 3 18 3C13.8579 3 10.5 6.35786 10.5 10.5C10.5 14.6421 13.8579 18 18 18Z" fill="black" stroke="#292D32" stroke-width="1.5" stroke-linecap="round" stroke-linejoin="round"/>
<mask id="path-2-inside-1_3195_533" fill="white">
<path d="M30.885 33C30.885 27.195 25.11 22.5 18 22.5C10.89 22.5 5.11499 27.195 5.11499 33"/>
</mask>
<path d="M30.885 33C30.885 27.195 25.11 22.5 18 22.5C10.89 22.5 5.11499 27.195 5.11499 33" fill="black"/>
<path d="M29.385 33C29.385 33.8284 30.0566 34.5 30.885 34.5C31.7134 34.5 32.385 33.8284 32.385 33H29.385ZM3.61499 33C3.61499 33.8284 4.28656 34.5 5.11499 34.5C5.94342 34.5 6.61499 33.8284 6.61499 33H3.61499ZM32.385 33C32.385 26.0933 25.6357 21 18 21V24C24.5842 24 29.385 28.2967 29.385 33H32.385ZM18 21C10.3642 21 3.61499 26.0933 3.61499 33H6.61499C6.61499 28.2967 11.4157 24 18 24V21Z" fill="#292D32" mask="url(#path-2-inside-1_3195_533)"/>
</svg>
