<svg width="1024" height="1024" viewBox="0 0 1024 1024" fill="none" xmlns="http://www.w3.org/2000/svg">
<path d="M384 170.667C384 99.9742 441.309 42.667 512 42.667C582.691 42.667 640 99.9742 640 170.667C640 226.398 604.381 273.812 554.666 291.383V487.367L726.262 586.437C748.794 566.659 778.33 554.667 810.667 554.667C881.358 554.667 938.667 611.975 938.667 682.667C938.667 753.359 881.358 810.667 810.667 810.667C739.975 810.667 682.667 753.359 682.667 682.667C682.667 675.236 683.3 667.953 684.515 660.869L512 561.268L339.485 660.869C340.7 667.953 341.333 675.236 341.333 682.667C341.333 753.359 284.025 810.667 213.333 810.667C142.641 810.667 85.3335 753.358 85.3335 682.667C85.3335 611.976 142.641 554.667 213.333 554.667C245.67 554.667 275.206 566.658 297.738 586.437L469.333 487.367V291.383C419.619 273.811 384 226.398 384 170.667Z" fill="white"/>
<path d="M85.3335 341.334C85.3335 270.642 142.641 213.334 213.333 213.334C284.025 213.334 341.333 270.642 341.333 341.334C341.333 412.025 284.025 469.334 213.333 469.334C142.641 469.334 85.3335 412.025 85.3335 341.334Z" fill="white"/>
<path d="M384 853.334C384 782.642 441.308 725.334 512 725.334C582.692 725.334 640 782.642 640 853.334C640 924.025 582.692 981.334 512 981.334C441.308 981.334 384 924.025 384 853.334Z" fill="white"/>
<path d="M682.667 341.334C682.667 270.642 739.975 213.334 810.667 213.334C881.358 213.334 938.667 270.642 938.667 341.334C938.667 412.025 881.358 469.334 810.667 469.334C739.975 469.334 682.667 412.025 682.667 341.334Z" fill="white"/>
</svg>
