<svg width="36" height="36" viewBox="0 0 36 36" fill="none" xmlns="http://www.w3.org/2000/svg">
<path fill-rule="evenodd" clip-rule="evenodd" d="M26.9876 16.2606L12.9289 9.17696C12.5615 8.96209 12.112 8.94168 11.7267 9.12237C11.3414 9.30306 11.0697 9.66173 11 10.0815C11.0048 10.221 11.0384 10.358 11.0987 10.4839L13.7755 16.9505C13.9098 17.3799 13.9829 17.8261 13.9927 18.2759C13.983 18.7257 13.9098 19.1719 13.7755 19.6013L11.0987 26.0679C11.0384 26.1938 11.0048 26.3308 11 26.4702C11.0702 26.8894 11.3419 27.2474 11.7268 27.4278C12.1116 27.6081 12.5606 27.5879 12.9276 27.3736L26.9876 20.2899C27.7717 19.9258 28.2732 19.1398 28.2732 18.2753C28.2732 17.4108 27.7717 16.6248 26.9876 16.2606V16.2606Z" stroke="black" stroke-width="1.5" stroke-linecap="round" stroke-linejoin="round"/>
</svg>
