<svg width="36" height="36" viewBox="0 0 36 36" fill="none" xmlns="http://www.w3.org/2000/svg">
<path d="M13.5 6C13.5 3.51471 15.5148 1.5 18 1.5C20.4852 1.5 22.5 3.51471 22.5 6C22.5 7.95929 21.2478 9.62619 19.5 10.2439V17.134L25.5326 20.6169C26.3248 19.9216 27.3632 19.5 28.5 19.5C30.9852 19.5 33 21.5147 33 24C33 26.4853 30.9852 28.5 28.5 28.5C26.0147 28.5 24 26.4853 24 24C24 23.7388 24.0223 23.4827 24.065 23.2337L18 19.7321L11.935 23.2337C11.9777 23.4827 12 23.7388 12 24C12 26.4853 9.98525 28.5 7.49999 28.5C5.01472 28.5 3 26.4852 3 24C3 21.5148 5.01472 19.5 7.49999 19.5C8.63683 19.5 9.67521 19.9216 10.4673 20.6169L16.5 17.134V10.2439C14.7522 9.62616 13.5 7.95929 13.5 6Z" fill="white"/>
<path d="M3 12C3 9.51473 5.01472 7.5 7.49999 7.5C9.98525 7.5 12 9.51473 12 12C12 14.4852 9.98525 16.5 7.49999 16.5C5.01472 16.5 3 14.4852 3 12Z" fill="white"/>
<path d="M13.5 30C13.5 27.5147 15.5147 25.5 18 25.5C20.4853 25.5 22.5 27.5147 22.5 30C22.5 32.4852 20.4853 34.5 18 34.5C15.5147 34.5 13.5 32.4852 13.5 30Z" fill="white"/>
<path d="M24 12C24 9.51473 26.0147 7.5 28.5 7.5C30.9852 7.5 33 9.51473 33 12C33 14.4852 30.9852 16.5 28.5 16.5C26.0147 16.5 24 14.4852 24 12Z" fill="white"/>
</svg>
