<svg width="36" height="36" viewBox="0 0 36 36" fill="none" xmlns="http://www.w3.org/2000/svg">
<path fill-rule="evenodd" clip-rule="evenodd" d="M6 21.693V18.807C6.03193 17.5022 7.11465 16.4698 8.4195 16.5H9.411C10.2631 13.8639 12.6922 12.0575 15.462 12H20.538C23.3078 12.0575 25.7369 13.8639 26.589 16.5C26.8623 17.2846 27.0013 18.1097 27 18.9405V21.5595C27.1274 25.2587 24.2369 28.3633 20.538 28.5H15.462C12.6922 28.4425 10.2631 26.6361 9.411 24H8.4195C7.11465 24.0302 6.03193 22.9978 6 21.693Z" stroke="black" stroke-width="1.5" stroke-linecap="round" stroke-linejoin="round"/>
<path fill-rule="evenodd" clip-rule="evenodd" d="M21 18.75C21 20.4069 19.6569 21.75 18 21.75C16.3431 21.75 15 20.4069 15 18.75C15 17.0931 16.3431 15.75 18 15.75C19.6569 15.75 21 17.0931 21 18.75Z" stroke="black" stroke-width="1.5" stroke-linecap="round" stroke-linejoin="round"/>
<path d="M18.75 7.5C18.75 7.08579 18.4142 6.75 18 6.75C17.5858 6.75 17.25 7.08579 17.25 7.5H18.75ZM17.25 12C17.25 12.4142 17.5858 12.75 18 12.75C18.4142 12.75 18.75 12.4142 18.75 12H17.25ZM8.70276 24.2467C8.83904 24.6379 9.2666 24.8445 9.65776 24.7082C10.0489 24.572 10.2555 24.1444 10.1193 23.7533L8.70276 24.2467ZM9.00001 21.5595L9.75001 21.5607V21.5595H9.00001ZM9.00001 18.9405L9.75001 18.9405L9.75001 18.9393L9.00001 18.9405ZM10.1193 16.7467C10.2555 16.3556 10.0489 15.928 9.65776 15.7918C9.2666 15.6555 8.83904 15.8621 8.70276 16.2533L10.1193 16.7467ZM26.589 15.75C26.1748 15.75 25.839 16.0858 25.839 16.5C25.839 16.9142 26.1748 17.25 26.589 17.25V15.75ZM27.5805 16.5V17.25C27.5863 17.25 27.5921 17.2499 27.5979 17.2498L27.5805 16.5ZM30 18.807H30.75C30.75 18.8009 30.7499 18.7948 30.7498 18.7887L30 18.807ZM30 21.693L30.7498 21.7113C30.7499 21.7052 30.75 21.6991 30.75 21.693H30ZM27.5805 24L27.5979 23.2502C27.5921 23.2501 27.5863 23.25 27.5805 23.25V24ZM26.589 23.25C26.1748 23.25 25.839 23.5858 25.839 24C25.839 24.4142 26.1748 24.75 26.589 24.75V23.25ZM15 24C14.5858 24 14.25 24.3358 14.25 24.75C14.25 25.1642 14.5858 25.5 15 25.5V24ZM21 25.5C21.4142 25.5 21.75 25.1642 21.75 24.75C21.75 24.3358 21.4142 24 21 24V25.5ZM17.25 7.5V12H18.75V7.5H17.25ZM10.1193 23.7533C9.87368 23.0484 9.74885 22.3071 9.75001 21.5607L8.25001 21.5583C8.24858 22.4736 8.40165 23.3825 8.70276 24.2467L10.1193 23.7533ZM9.75001 21.5595V18.9405H8.25001V21.5595H9.75001ZM9.75001 18.9393C9.74885 18.1929 9.87368 17.4516 10.1193 16.7467L8.70276 16.2533C8.40165 17.1175 8.24858 18.0264 8.25001 18.9417L9.75001 18.9393ZM26.589 17.25H27.5805V15.75H26.589V17.25ZM27.5979 17.2498C28.489 17.2292 29.2284 17.9342 29.2502 18.8253L30.7498 18.7887C30.7077 17.0702 29.2817 15.7104 27.5632 15.7502L27.5979 17.2498ZM29.25 18.807V21.693H30.75V18.807H29.25ZM29.2502 21.6747C29.2284 22.5658 28.489 23.2708 27.5979 23.2502L27.5632 24.7498C29.2817 24.7896 30.7077 23.4299 30.7498 21.7113L29.2502 21.6747ZM27.5805 23.25H26.589V24.75H27.5805V23.25ZM15 25.5H21V24H15V25.5Z" fill="black"/>
</svg>
