<svg width="36" height="36" viewBox="0 0 36 36" fill="none" xmlns="http://www.w3.org/2000/svg">
<path fill-rule="evenodd" clip-rule="evenodd" d="M16.95 28.5C16.4002 28.5 15.9311 28.102 15.8415 27.5595C15.7591 27.1206 15.4431 26.762 15.018 26.625C14.6717 26.5061 14.333 26.3658 14.004 26.205C13.6125 26.0048 13.1429 26.0347 12.78 26.283C12.3409 26.5988 11.7376 26.5499 11.355 26.1675L9.86701 24.6795C9.46656 24.279 9.41452 23.6476 9.74401 23.187C9.99812 22.8157 10.0347 22.3371 9.84001 21.9315C9.71172 21.6497 9.59856 21.3613 9.50101 21.0675C9.36131 20.6045 8.97569 20.2576 8.50051 20.1675C7.92749 20.0759 7.50447 19.5838 7.50001 19.0035V17.142C7.49696 16.4731 7.98007 15.901 8.64001 15.792C9.14066 15.6968 9.55871 15.3539 9.75001 14.8815C9.80701 14.7485 9.86701 14.6165 9.93001 14.4855C10.1844 13.9957 10.1493 13.4057 9.83851 12.9495C9.44985 12.4093 9.50952 11.6671 9.97951 11.196L11.073 10.1025C11.6123 9.56299 12.4629 9.49316 13.083 9.9375L13.1175 9.9615C13.5805 10.2731 14.1697 10.3296 14.6835 10.1115C15.2331 9.91367 15.6382 9.44136 15.75 8.868L15.765 8.817C15.8885 8.05796 16.544 7.50031 17.313 7.5H18.633C19.4228 7.49964 20.0968 8.07086 20.226 8.85L20.25 8.955C20.356 9.50426 20.7401 9.95882 21.264 10.155C21.7689 10.3717 22.3495 10.3151 22.803 10.005L22.878 9.951C23.5142 9.49251 24.389 9.56303 24.9435 10.1175L25.95 11.1255C26.4544 11.6327 26.5179 12.4304 26.1 13.011C25.7727 13.4963 25.7309 14.1199 25.9905 14.6445L26.055 14.7945C26.2653 15.3067 26.7201 15.678 27.264 15.7815C27.9749 15.8974 28.4977 16.5103 28.5 17.2305V18.9C28.4998 19.5351 28.0405 20.0769 27.414 20.181C26.8988 20.2798 26.479 20.6529 26.3205 21.153C26.2505 21.353 26.1725 21.553 26.0865 21.753C25.8864 22.1924 25.9308 22.7045 26.2035 23.103C26.5635 23.6037 26.5076 24.2915 26.0715 24.7275L24.675 26.1255C24.2756 26.5248 23.6459 26.5762 23.187 26.247C22.804 25.9853 22.3078 25.9565 21.897 26.172C21.6043 26.317 21.3039 26.4457 20.997 26.5575C20.568 26.7055 20.2517 27.0728 20.169 27.519C20.0816 28.0804 19.6002 28.4957 19.032 28.5H16.95Z" stroke="black" stroke-width="1.5" stroke-linecap="round" stroke-linejoin="round"/>
<path fill-rule="evenodd" clip-rule="evenodd" d="M21.4995 18C21.4995 19.9327 19.9327 21.4995 18 21.4995C16.0673 21.4995 14.5005 19.9327 14.5005 18C14.5005 16.0673 16.0673 14.5005 18 14.5005C19.9327 14.5005 21.4995 16.0673 21.4995 18Z" stroke="black" stroke-width="1.5" stroke-linecap="round" stroke-linejoin="round"/>
</svg>
