<svg width="150" height="150" viewBox="0 0 150 150" fill="none" xmlns="http://www.w3.org/2000/svg">
<g clip-path="url(#clip0_6_101)">
<path fill-rule="evenodd" clip-rule="evenodd" d="M31.8817 0H118.118C135.654 0 150 14.3463 150 31.8817V118.118C150 135.654 135.654 150 118.118 150H31.8817C14.3463 150 0 135.654 0 118.118V31.8817C0 14.3463 14.3463 0 31.8817 0Z" fill="black"/>
<path d="M75.5028 131.49C64.08 131.49 58.8275 130.082 50.1015 125.384C42.5411 121.314 36.023 115.866 32.5339 108.047C20.0321 80.0374 23.8301 38.1464 50.5471 24.2245C64.1133 17.1564 85.6333 16.3797 99.4163 23.3867C112.637 30.1082 119.034 40.5943 124.325 54.0483L113.525 57.134C108.537 39.0131 96.5183 28.9737 77.0107 28.9737C69.3014 28.9737 62.3054 29.7482 56.4263 32.6627C42.3633 39.6309 36.6008 55.9773 36.0341 72.5348C35.6218 84.5666 37.5664 96.7116 42.9356 105.45C49.077 115.444 61.8388 121.764 73.8016 121.764C85.0066 121.764 94.0226 119.816 100.976 113.294C110.446 104.41 112.419 90.2435 100.349 81.6064C96.6306 113.338 53.6017 111.528 53.6017 86.3066C53.6017 81.0697 55.6384 76.4995 59.7109 72.597C67.7991 64.8466 79.9686 67.1368 90.118 66.9834C89.048 62.1932 84.9755 55.2528 77.1584 55.2528C71.1348 55.2528 65.9445 56.7673 63.1544 61.432L54.7462 55.9773C58.3075 49.2903 65.4878 44.8989 76.504 44.8989C87.5201 44.8989 98.304 52.1071 100.092 65.7767L100.644 69.998C106.871 72.5104 111.354 77.1973 114.466 81.9197C123.216 95.1982 118.392 112.231 105.895 122.821C99.0774 128.599 88.9446 131.489 75.5039 131.489L75.5028 131.49ZM63.6411 86.0933C63.6411 91.2891 69.1536 95.1749 74.4905 95.1749C80.4442 95.1749 84.5377 93.4959 86.7701 90.138C89.0024 86.78 90.1191 82.7353 90.1191 78.0062C84.0032 76.4517 73.3627 75.3372 67.7235 79.0696C65.0678 80.8275 63.6422 83.0665 63.6422 86.0933H63.6411Z" fill="white"/>
</g>
<defs>
<clipPath id="clip0_6_101">
<rect width="150" height="150" fill="white"/>
</clipPath>
</defs>
</svg>
