<svg width="36" height="36" viewBox="0 0 36 36" fill="none" xmlns="http://www.w3.org/2000/svg">
<path d="M29.25 13.5C29.25 13.0858 28.9142 12.75 28.5 12.75C28.0858 12.75 27.75 13.0858 27.75 13.5H29.25ZM16.5 27.75C16.0858 27.75 15.75 28.0858 15.75 28.5C15.75 28.9142 16.0858 29.25 16.5 29.25V27.75ZM27.75 13.5C27.75 13.9142 28.0858 14.25 28.5 14.25C28.9142 14.25 29.25 13.9142 29.25 13.5H27.75ZM16.5 6.75C16.0858 6.75 15.75 7.08579 15.75 7.5C15.75 7.91421 16.0858 8.25 16.5 8.25V6.75ZM28.5 14.25C28.9142 14.25 29.25 13.9142 29.25 13.5C29.25 13.0858 28.9142 12.75 28.5 12.75V14.25ZM16.5 12.75C16.0858 12.75 15.75 13.0858 15.75 13.5C15.75 13.9142 16.0858 14.25 16.5 14.25V12.75ZM8.25 18C8.25 17.5858 7.91421 17.25 7.5 17.25C7.08579 17.25 6.75 17.5858 6.75 18H8.25ZM16.5 29.25C16.9142 29.25 17.25 28.9142 17.25 28.5C17.25 28.0858 16.9142 27.75 16.5 27.75V29.25ZM6.75 18C6.75 18.4142 7.08579 18.75 7.5 18.75C7.91421 18.75 8.25 18.4142 8.25 18H6.75ZM16.5 8.25C16.9142 8.25 17.25 7.91421 17.25 7.5C17.25 7.08579 16.9142 6.75 16.5 6.75V8.25ZM7.5 17.25C7.08579 17.25 6.75 17.5858 6.75 18C6.75 18.4142 7.08579 18.75 7.5 18.75V17.25ZM16.5 18.75C16.9142 18.75 17.25 18.4142 17.25 18C17.25 17.5858 16.9142 17.25 16.5 17.25V18.75ZM17.25 18C17.25 17.5858 16.9142 17.25 16.5 17.25C16.0858 17.25 15.75 17.5858 15.75 18H17.25ZM15.75 28.5C15.75 28.9142 16.0858 29.25 16.5 29.25C16.9142 29.25 17.25 28.9142 17.25 28.5H15.75ZM15.75 18C15.75 18.4142 16.0858 18.75 16.5 18.75C16.9142 18.75 17.25 18.4142 17.25 18H15.75ZM17.25 13.5C17.25 13.0858 16.9142 12.75 16.5 12.75C16.0858 12.75 15.75 13.0858 15.75 13.5H17.25ZM17.25 7.5C17.25 7.08579 16.9142 6.75 16.5 6.75C16.0858 6.75 15.75 7.08579 15.75 7.5H17.25ZM15.75 13.5C15.75 13.9142 16.0858 14.25 16.5 14.25C16.9142 14.25 17.25 13.9142 17.25 13.5H15.75ZM27.75 13.5V22.5H29.25V13.5H27.75ZM27.75 22.5C27.75 25.3995 25.3995 27.75 22.5 27.75V29.25C26.2279 29.25 29.25 26.2279 29.25 22.5H27.75ZM22.5 27.75H16.5V29.25H22.5V27.75ZM29.25 13.5C29.25 9.77208 26.2279 6.75 22.5 6.75V8.25C25.3995 8.25 27.75 10.6005 27.75 13.5H29.25ZM22.5 6.75H16.5V8.25H22.5V6.75ZM28.5 12.75L16.5 12.75V14.25L28.5 14.25V12.75ZM6.75 18L6.75 22.5H8.25V18H6.75ZM6.75 22.5C6.75 26.2279 9.77208 29.25 13.5 29.25V27.75C10.6005 27.75 8.25 25.3995 8.25 22.5H6.75ZM13.5 29.25H16.5V27.75H13.5V29.25ZM8.25 18V13.5H6.75V18H8.25ZM8.25 13.5C8.25 10.6005 10.6005 8.25 13.5 8.25V6.75C9.77208 6.75 6.75 9.77208 6.75 13.5H8.25ZM13.5 8.25H16.5V6.75H13.5V8.25ZM7.5 18.75H16.5V17.25H7.5V18.75ZM15.75 18V28.5H17.25V18H15.75ZM17.25 18V13.5H15.75L15.75 18H17.25ZM15.75 7.5V13.5H17.25V7.5H15.75Z" fill="black"/>
</svg>
