<svg width="151" height="150" viewBox="0 0 151 150" fill="none" xmlns="http://www.w3.org/2000/svg">
<path d="M75.0386 1.13641C44.1954 1.13641 35.175 1.16823 33.4216 1.31369C27.092 1.83982 23.1534 2.83641 18.8625 4.97278C15.5557 6.61482 12.9477 8.51823 10.3739 11.1864C5.68636 16.0523 2.84545 22.0387 1.81704 29.1546C1.31704 32.6091 1.17159 33.3137 1.14204 50.9591C1.13068 56.841 1.14204 64.5819 1.14204 74.9648C1.14204 105.783 1.17613 114.794 1.32386 116.544C1.83523 122.703 2.80113 126.578 4.84659 130.817C8.75568 138.931 16.2216 145.022 25.017 147.294C28.0625 148.078 31.4261 148.51 35.7443 148.715C37.5739 148.794 56.2216 148.851 74.8807 148.851C93.5397 148.851 112.199 148.828 113.983 148.738C118.983 148.502 121.886 148.113 125.097 147.283C133.949 144.999 141.278 138.999 145.267 130.772C147.273 126.635 148.29 122.613 148.75 116.775C148.85 115.502 148.892 95.2103 148.892 74.9455C148.892 54.6773 148.847 34.4228 148.747 33.1501C148.281 27.2182 147.264 23.2296 145.193 19.0137C143.494 15.5626 141.608 12.9853 138.869 10.35C133.982 5.68187 128.005 2.84096 120.882 1.81369C117.431 1.31482 116.743 1.1671 99.0841 1.13641H75.0386Z" fill="url(#paint0_radial_6_100)"/>
<path d="M75.0386 1.13641C44.1954 1.13641 35.175 1.16823 33.4216 1.31369C27.092 1.83982 23.1534 2.83641 18.8625 4.97278C15.5557 6.61482 12.9477 8.51823 10.3739 11.1864C5.68636 16.0523 2.84545 22.0387 1.81704 29.1546C1.31704 32.6091 1.17159 33.3137 1.14204 50.9591C1.13068 56.841 1.14204 64.5819 1.14204 74.9648C1.14204 105.783 1.17613 114.794 1.32386 116.544C1.83523 122.703 2.80113 126.578 4.84659 130.817C8.75568 138.931 16.2216 145.022 25.017 147.294C28.0625 148.078 31.4261 148.51 35.7443 148.715C37.5739 148.794 56.2216 148.851 74.8807 148.851C93.5397 148.851 112.199 148.828 113.983 148.738C118.983 148.502 121.886 148.113 125.097 147.283C133.949 144.999 141.278 138.999 145.267 130.772C147.273 126.635 148.29 122.613 148.75 116.775C148.85 115.502 148.892 95.2103 148.892 74.9455C148.892 54.6773 148.847 34.4228 148.747 33.1501C148.281 27.2182 147.264 23.2296 145.193 19.0137C143.494 15.5626 141.608 12.9853 138.869 10.35C133.982 5.68187 128.005 2.84096 120.882 1.81369C117.431 1.31482 116.743 1.1671 99.0841 1.13641H75.0386Z" fill="url(#paint1_radial_6_100)"/>
<path d="M75.0045 20.4546C60.1909 20.4546 58.3318 20.5194 52.5136 20.7842C46.7068 21.0501 42.7432 21.9694 39.275 23.3183C35.6875 24.7114 32.6443 26.5751 29.6125 29.608C26.5784 32.6398 24.7148 35.683 23.317 39.2694C21.9648 42.7387 21.0443 46.7035 20.7829 52.508C20.5227 58.3262 20.4545 60.1864 20.4545 75.0001C20.4545 89.8137 20.5204 91.6671 20.7841 97.4853C21.0511 103.292 21.9704 107.256 23.3182 110.724C24.7125 114.311 26.5761 117.355 29.6091 120.386C32.6398 123.421 35.6829 125.289 39.2682 126.682C42.7386 128.031 46.7034 128.95 52.5091 129.216C58.3272 129.481 60.1852 129.546 74.9977 129.546C89.8125 129.546 91.6659 129.481 97.4841 129.216C103.291 128.95 107.259 128.031 110.73 126.682C114.316 125.289 117.355 123.421 120.385 120.386C123.419 117.355 125.283 114.311 126.681 110.725C128.022 107.256 128.942 103.291 129.215 97.4864C129.476 91.6683 129.544 89.8137 129.544 75.0001C129.544 60.1864 129.476 58.3273 129.215 52.5092C128.942 46.7023 128.022 42.7387 126.681 39.2705C125.283 35.683 123.419 32.6398 120.385 29.608C117.351 26.5739 114.317 24.7103 110.726 23.3183C107.249 21.9694 103.283 21.0501 97.4761 20.7842C91.6579 20.5194 89.8056 20.4546 74.9875 20.4546H75.0045ZM70.1113 30.2842C71.5636 30.2819 73.1841 30.2842 75.0045 30.2842C89.5681 30.2842 91.2943 30.3364 97.0454 30.5978C102.364 30.841 105.25 31.7296 107.173 32.4762C109.718 33.4648 111.533 34.6467 113.441 36.5558C115.35 38.4648 116.532 40.283 117.523 42.8285C118.269 44.7489 119.159 47.6353 119.401 52.9535C119.662 58.7035 119.719 60.4308 119.719 74.9876C119.719 89.5444 119.662 91.2717 119.401 97.0217C119.158 102.34 118.269 105.226 117.523 107.147C116.534 109.692 115.35 111.505 113.441 113.413C111.532 115.322 109.719 116.503 107.173 117.492C105.252 118.242 102.364 119.128 97.0454 119.372C91.2954 119.633 89.5681 119.69 75.0045 119.69C60.4397 119.69 58.7136 119.633 52.9636 119.372C47.6454 119.126 44.7591 118.238 42.8352 117.491C40.2898 116.502 38.4716 115.321 36.5625 113.411C34.6534 111.502 33.4716 109.689 32.4807 107.142C31.7341 105.222 30.8443 102.335 30.6023 97.0171C30.3409 91.2671 30.2886 89.5398 30.2886 74.9739C30.2886 60.408 30.3409 58.6898 30.6023 52.9398C30.8454 47.6217 31.7341 44.7353 32.4807 42.8126C33.4693 40.2671 34.6534 38.4489 36.5625 36.5398C38.4716 34.6308 40.2898 33.4489 42.8352 32.458C44.7579 31.708 47.6454 30.8217 52.9636 30.5773C57.9954 30.3501 59.9454 30.2819 70.1113 30.2705V30.2842ZM104.12 39.341C100.507 39.341 97.575 42.2694 97.575 45.8842C97.575 49.4978 100.507 52.4296 104.12 52.4296C107.734 52.4296 110.666 49.4978 110.666 45.8842C110.666 42.2705 107.734 39.3387 104.12 39.3387V39.341ZM75.0045 46.9887C59.5352 46.9887 46.9932 59.5308 46.9932 75.0001C46.9932 90.4694 59.5352 103.006 75.0045 103.006C90.4738 103.006 103.011 90.4694 103.011 75.0001C103.011 59.5308 90.4738 46.9887 75.0045 46.9887ZM75.0045 56.8183C85.0454 56.8183 93.1863 64.958 93.1863 75.0001C93.1863 85.041 85.0454 93.1819 75.0045 93.1819C64.9625 93.1819 56.8227 85.041 56.8227 75.0001C56.8227 64.958 64.9625 56.8183 75.0045 56.8183Z" fill="white"/>
<defs>
<radialGradient id="paint0_radial_6_100" cx="0" cy="0" r="1" gradientUnits="userSpaceOnUse" gradientTransform="translate(40.3846 160.228) rotate(-90) scale(146.396 136.197)">
<stop stop-color="#FFDD55"/>
<stop offset="0.1" stop-color="#FFDD55"/>
<stop offset="0.5" stop-color="#FF543E"/>
<stop offset="1" stop-color="#C837AB"/>
</radialGradient>
<radialGradient id="paint1_radial_6_100" cx="0" cy="0" r="1" gradientUnits="userSpaceOnUse" gradientTransform="translate(-23.6128 11.7775) rotate(78.6776) scale(65.4404 269.816)">
<stop stop-color="#3771C8"/>
<stop offset="0.128" stop-color="#3771C8"/>
<stop offset="1" stop-color="#6600FF" stop-opacity="0"/>
</radialGradient>
</defs>
</svg>
