<svg width="36" height="36" viewBox="0 0 36 36" fill="none" xmlns="http://www.w3.org/2000/svg">
<path d="M9.79289 24.7929C9.40237 25.1834 9.40237 25.8166 9.79289 26.2071C10.1834 26.5976 10.8166 26.5976 11.2071 26.2071L9.79289 24.7929ZM18.7071 18.7071C19.0976 18.3166 19.0976 17.6834 18.7071 17.2929C18.3166 16.9024 17.6834 16.9024 17.2929 17.2929L18.7071 18.7071ZM17.2929 17.2929C16.9024 17.6834 16.9024 18.3166 17.2929 18.7071C17.6834 19.0976 18.3166 19.0976 18.7071 18.7071L17.2929 17.2929ZM26.2071 11.2071C26.5976 10.8166 26.5976 10.1834 26.2071 9.79289C25.8166 9.40237 25.1834 9.40237 24.7929 9.79289L26.2071 11.2071ZM18.7071 17.2929C18.3166 16.9024 17.6834 16.9024 17.2929 17.2929C16.9024 17.6834 16.9024 18.3166 17.2929 18.7071L18.7071 17.2929ZM24.7929 26.2071C25.1834 26.5976 25.8166 26.5976 26.2071 26.2071C26.5976 25.8166 26.5976 25.1834 26.2071 24.7929L24.7929 26.2071ZM17.2929 18.7071C17.6834 19.0976 18.3166 19.0976 18.7071 18.7071C19.0976 18.3166 19.0976 17.6834 18.7071 17.2929L17.2929 18.7071ZM11.2071 9.79289C10.8166 9.40237 10.1834 9.40237 9.79289 9.79289C9.40237 10.1834 9.40237 10.8166 9.79289 11.2071L11.2071 9.79289ZM11.2071 26.2071L18.7071 18.7071L17.2929 17.2929L9.79289 24.7929L11.2071 26.2071ZM18.7071 18.7071L26.2071 11.2071L24.7929 9.79289L17.2929 17.2929L18.7071 18.7071ZM17.2929 18.7071L24.7929 26.2071L26.2071 24.7929L18.7071 17.2929L17.2929 18.7071ZM18.7071 17.2929L11.2071 9.79289L9.79289 11.2071L17.2929 18.7071L18.7071 17.2929Z" fill="black"/>
</svg>
