<svg width="36" height="36" viewBox="0 0 36 36" fill="none" xmlns="http://www.w3.org/2000/svg">
<path fill-rule="evenodd" clip-rule="evenodd" d="M19.7505 27.1289C19.7836 27.8507 19.2271 28.4635 18.5055 28.4999H15.996C15.2744 28.4635 14.7179 27.8507 14.751 27.1289V24.4664C11.2128 23.1681 9.20527 19.4283 10.0783 15.762C10.9513 12.0956 14.4289 9.66196 18.1725 10.0975C21.9161 10.5331 24.742 13.7001 24.75 17.4689C24.7401 20.6269 22.7348 23.4336 19.7505 24.4664V27.1289Z" fill="black" stroke="black" stroke-width="1.5" stroke-linecap="round" stroke-linejoin="round"/>
<path d="M19.7505 25.2165C20.1647 25.2165 20.5005 24.8807 20.5005 24.4665C20.5005 24.0523 20.1647 23.7165 19.7505 23.7165V25.2165ZM14.7495 23.7165C14.3353 23.7165 13.9995 24.0523 13.9995 24.4665C13.9995 24.8807 14.3353 25.2165 14.7495 25.2165V23.7165ZM31.5 18.219C31.9142 18.219 32.25 17.8832 32.25 17.469C32.25 17.0548 31.9142 16.719 31.5 16.719V18.219ZM28.5 16.719C28.0858 16.719 27.75 17.0548 27.75 17.469C27.75 17.8832 28.0858 18.219 28.5 18.219V16.719ZM6 18.219C6.41421 18.219 6.75 17.8832 6.75 17.469C6.75 17.0548 6.41421 16.719 6 16.719V18.219ZM3 16.719C2.58579 16.719 2.25 17.0548 2.25 17.469C2.25 17.8832 2.58579 18.219 3 18.219V16.719ZM27.8539 8.03371C28.1487 7.74269 28.1517 7.26783 27.8607 6.97307C27.5697 6.67831 27.0948 6.67528 26.8001 6.96629L27.8539 8.03371ZM24.6731 9.06629C24.3783 9.35731 24.3753 9.83217 24.6663 10.1269C24.9573 10.4217 25.4322 10.4247 25.7269 10.1337L24.6731 9.06629ZM9.82768 25.8725C10.122 25.581 10.1244 25.1062 9.83296 24.8118C9.54153 24.5175 9.06666 24.5151 8.77232 24.8065L9.82768 25.8725ZM6.65131 26.9065C6.35697 27.198 6.35461 27.6728 6.64604 27.9672C6.93747 28.2615 7.41234 28.2639 7.70669 27.9725L6.65131 26.9065ZM26.8038 27.9725C27.0982 28.2639 27.573 28.2615 27.8645 27.9672C28.1559 27.6728 28.1535 27.198 27.8592 26.9065L26.8038 27.9725ZM25.7382 24.8065C25.4438 24.5151 24.969 24.5175 24.6775 24.8118C24.3861 25.1062 24.3885 25.581 24.6828 25.8725L25.7382 24.8065ZM8.77307 10.1337C9.06783 10.4247 9.54269 10.4217 9.83371 10.1269C10.1247 9.83217 10.1217 9.35731 9.82693 9.06629L8.77307 10.1337ZM7.69993 6.96629C7.40517 6.67528 6.93031 6.67831 6.63929 6.97307C6.34828 7.26783 6.35131 7.74269 6.64607 8.03371L7.69993 6.96629ZM19.7505 23.7165H14.7495V25.2165H19.7505V23.7165ZM31.5 16.719H28.5V18.219H31.5V16.719ZM6 16.719H3V18.219H6V16.719ZM26.8001 6.96629L24.6731 9.06629L25.7269 10.1337L27.8539 8.03371L26.8001 6.96629ZM8.77232 24.8065L6.65131 26.9065L7.70669 27.9725L9.82768 25.8725L8.77232 24.8065ZM27.8592 26.9065L25.7382 24.8065L24.6828 25.8725L26.8038 27.9725L27.8592 26.9065ZM9.82693 9.06629L7.69993 6.96629L6.64607 8.03371L8.77307 10.1337L9.82693 9.06629Z" fill="black"/>
</svg>
