<svg width="36" height="36" viewBox="0 0 36 36" fill="none" xmlns="http://www.w3.org/2000/svg">
<path fill-rule="evenodd" clip-rule="evenodd" d="M24.2505 13.5002H11.7495C11.0594 13.5002 10.5 14.0596 10.5 14.7497V24.7502C10.5 26.8213 12.1789 28.5002 14.25 28.5002H21.75C22.7446 28.5002 23.6984 28.1051 24.4017 27.4018C25.1049 26.6986 25.5 25.7447 25.5 24.7502V14.7497C25.5 14.0596 24.9406 13.5002 24.2505 13.5002Z" stroke="black" stroke-width="1.5" stroke-linecap="round" stroke-linejoin="round"/>
<path fill-rule="evenodd" clip-rule="evenodd" d="M22.5 10.5001L22.341 10.1836C21.5189 8.53895 19.838 7.5 17.9993 7.5C16.1605 7.5 14.4796 8.53895 13.6575 10.1836L13.5 10.5001H22.5Z" stroke="black" stroke-width="1.5" stroke-linecap="round" stroke-linejoin="round"/>
<path d="M16.2495 18.4997C16.2495 18.0855 15.9137 17.7497 15.4995 17.7497C15.0853 17.7497 14.7495 18.0855 14.7495 18.4997H16.2495ZM14.7495 23.4992C14.7495 23.9134 15.0853 24.2492 15.4995 24.2492C15.9137 24.2492 16.2495 23.9134 16.2495 23.4992H14.7495ZM21.2505 18.4997C21.2505 18.0855 20.9147 17.7497 20.5005 17.7497C20.0863 17.7497 19.7505 18.0855 19.7505 18.4997H21.2505ZM19.7505 23.4992C19.7505 23.9134 20.0863 24.2492 20.5005 24.2492C20.9147 24.2492 21.2505 23.9134 21.2505 23.4992H19.7505ZM22.5 9.75018C22.0858 9.75018 21.75 10.086 21.75 10.5002C21.75 10.9144 22.0858 11.2502 22.5 11.2502V9.75018ZM25.5 11.2502C25.9142 11.2502 26.25 10.9144 26.25 10.5002C26.25 10.086 25.9142 9.75018 25.5 9.75018V11.2502ZM13.5 11.2502C13.9142 11.2502 14.25 10.9144 14.25 10.5002C14.25 10.086 13.9142 9.75018 13.5 9.75018V11.2502ZM10.5 9.75018C10.0858 9.75018 9.75 10.086 9.75 10.5002C9.75 10.9144 10.0858 11.2502 10.5 11.2502V9.75018ZM14.7495 18.4997V23.4992H16.2495V18.4997H14.7495ZM19.7505 18.4997V23.4992H21.2505V18.4997H19.7505ZM22.5 11.2502H25.5V9.75018H22.5V11.2502ZM13.5 9.75018H10.5V11.2502H13.5V9.75018Z" fill="black"/>
</svg>
